<svg width="20" height="20" viewBox="0 0 20 20" fill="none" xmlns="http://www.w3.org/2000/svg">
<g id="react-icons/fi/FiExternalLink">
<path id="Vector (Stroke)" fill-rule="evenodd" clip-rule="evenodd" d="M4.16666 5.83329C3.94564 5.83329 3.73368 5.92109 3.5774 6.07737C3.42112 6.23365 3.33332 6.44561 3.33332 6.66663V15.8333C3.33332 16.0543 3.42112 16.2663 3.5774 16.4225C3.73368 16.5788 3.94564 16.6666 4.16666 16.6666H13.3333C13.5543 16.6666 13.7663 16.5788 13.9226 16.4225C14.0789 16.2663 14.1667 16.0543 14.1667 15.8333V10.8333C14.1667 10.3731 14.5398 9.99996 15 9.99996C15.4602 9.99996 15.8333 10.3731 15.8333 10.8333V15.8333C15.8333 16.4963 15.5699 17.1322 15.1011 17.6011C14.6322 18.0699 13.9964 18.3333 13.3333 18.3333H4.16666C3.50361 18.3333 2.86773 18.0699 2.39889 17.6011C1.93005 17.1322 1.66666 16.4963 1.66666 15.8333V6.66663C1.66666 6.00358 1.93005 5.3677 2.39889 4.89886C2.86773 4.43002 3.50362 4.16663 4.16666 4.16663H9.16666C9.62689 4.16663 9.99999 4.53972 9.99999 4.99996C9.99999 5.4602 9.62689 5.83329 9.16666 5.83329H4.16666Z" fill="#98A2B3"/>
<path id="Vector (Stroke)_2" fill-rule="evenodd" clip-rule="evenodd" d="M11.6667 2.49996C11.6667 2.03972 12.0398 1.66663 12.5 1.66663H17.5C17.9602 1.66663 18.3333 2.03972 18.3333 2.49996V7.49996C18.3333 7.9602 17.9602 8.33329 17.5 8.33329C17.0398 8.33329 16.6667 7.9602 16.6667 7.49996V3.33329H12.5C12.0398 3.33329 11.6667 2.9602 11.6667 2.49996Z" fill="#98A2B3"/>
<path id="Vector (Stroke)_3" fill-rule="evenodd" clip-rule="evenodd" d="M18.0893 1.9107C18.4147 2.23614 18.4147 2.76378 18.0893 3.08921L8.92259 12.2559C8.59715 12.5813 8.06951 12.5813 7.74408 12.2559C7.41864 11.9304 7.41864 11.4028 7.74408 11.0774L16.9107 1.9107C17.2362 1.58527 17.7638 1.58527 18.0893 1.9107Z" fill="#98A2B3"/>
</g>
</svg>
